<svg width="600" height="600" viewBox="0 0 600 600" fill="none" xmlns="http://www.w3.org/2000/svg">
<path d="M131.22 204.837C131.593 206.451 130.587 208.067 128.961 208.386C112.41 211.632 95.2597 210.193 79.4514 204.201C62.7068 197.855 48.2201 186.686 37.8233 172.106C27.4265 157.527 21.5865 140.191 21.0419 122.293C20.4972 104.394 25.2724 86.7359 34.7635 71.5512C44.2546 56.3664 58.0353 44.3371 74.3631 36.9844C90.6908 29.6317 108.832 27.2859 126.493 30.2435C144.154 33.2012 160.541 41.3295 173.583 53.6006C185.895 65.1856 194.703 79.9718 199.037 96.2713C199.463 97.8725 198.451 99.485 196.837 99.8575L177.756 104.26C176.142 104.633 174.538 103.623 174.091 102.028C170.908 90.6572 164.679 80.3491 156.052 72.2317C146.696 63.4278 134.939 57.5962 122.268 55.4742C109.597 53.3522 96.5815 55.0352 84.8672 60.3104C73.1529 65.5856 63.266 74.216 56.4566 85.1103C49.6472 96.0045 46.2213 108.673 46.6121 121.515C47.0028 134.356 51.1927 146.793 58.6519 157.253C66.111 167.713 76.5045 175.727 88.5178 180.28C99.5945 184.478 111.59 185.561 123.205 183.44C124.835 183.142 126.445 184.142 126.818 185.756L131.22 204.837Z" fill="#00AAFF"/>
<circle cx="110.555" cy="120.523" r="30.5077" fill="#00AAFF"/>
<path d="M131.22 395.338C131.593 393.724 130.587 392.108 128.961 391.789C112.41 388.543 95.2597 389.982 79.4514 395.974C62.7068 402.32 48.2201 413.489 37.8233 428.069C27.4265 442.648 21.5865 459.984 21.0419 477.882C20.4972 495.781 25.2724 513.439 34.7635 528.624C44.2546 543.809 58.0353 555.838 74.3631 563.191C90.6908 570.543 108.832 572.889 126.493 569.931C144.154 566.974 160.541 558.845 173.583 546.574C185.895 534.989 194.703 520.203 199.037 503.904C199.463 502.302 198.451 500.69 196.837 500.317L177.756 495.915C176.142 495.542 174.538 496.552 174.091 498.147C170.908 509.518 164.679 519.826 156.052 527.943C146.696 536.747 134.939 542.579 122.268 544.701C109.597 546.823 96.5815 545.14 84.8672 539.865C73.1529 534.589 63.266 525.959 56.4566 515.065C49.6472 504.17 46.2213 491.502 46.6121 478.66C47.0028 465.819 51.1927 453.382 58.6519 442.922C66.111 432.462 76.5045 424.448 88.5178 419.895C99.5945 415.697 111.59 414.614 123.205 416.735C124.835 417.033 126.445 416.033 126.818 414.419L131.22 395.338Z" fill="#00AAFF"/>
<circle r="30.5077" transform="matrix(1 0 0 -1 110.555 479.652)" fill="#00AAFF"/>
<path d="M467.78 205.896C467.407 207.51 468.413 209.126 470.039 209.445C486.59 212.69 503.74 211.252 519.549 205.26C536.293 198.914 550.78 187.745 561.177 173.165C571.573 158.585 577.413 141.25 577.958 123.352C578.503 105.453 573.728 87.7948 564.237 72.6101C554.745 57.4253 540.965 45.396 524.637 38.0433C508.309 30.6906 490.168 28.3448 472.507 31.3024C454.846 34.2601 438.459 42.3884 425.417 54.6595C413.105 66.2445 404.297 81.0307 399.963 97.3302C399.537 98.9314 400.549 100.544 402.163 100.916L421.244 105.319C422.858 105.692 424.462 104.682 424.909 103.087C428.092 91.7161 434.321 81.408 442.948 73.2906C452.304 64.4867 464.061 58.6551 476.732 56.5331C489.403 54.4111 502.418 56.0941 514.133 61.3693C525.847 66.6445 535.734 75.2749 542.543 86.1692C549.353 97.0634 552.779 109.732 552.388 122.574C551.997 135.415 547.807 147.852 540.348 158.312C532.889 168.772 522.496 176.785 510.482 181.339C499.405 185.537 487.41 186.619 475.795 184.499C474.165 184.201 472.555 185.201 472.182 186.815L467.78 205.896Z" fill="#00AAFF"/>
<circle r="30.5077" transform="matrix(-1 0 0 1 488.445 121.582)" fill="#00AAFF"/>
<path d="M467.78 394.279C467.407 392.665 468.413 391.049 470.039 390.73C486.59 387.484 503.74 388.923 519.549 394.915C536.293 401.261 550.78 412.43 561.177 427.01C571.573 441.589 577.413 458.925 577.958 476.823C578.503 494.722 573.728 512.38 564.237 527.565C554.745 542.75 540.965 554.779 524.637 562.132C508.309 569.484 490.168 571.83 472.507 568.872C454.846 565.915 438.459 557.786 425.417 545.515C413.105 533.93 404.297 519.144 399.963 502.845C399.537 501.243 400.549 499.631 402.163 499.258L421.244 494.856C422.858 494.483 424.462 495.493 424.909 497.088C428.092 508.459 434.321 518.767 442.948 526.884C452.304 535.688 464.061 541.52 476.732 543.642C489.403 545.764 502.418 544.081 514.133 538.806C525.847 533.53 535.734 524.9 542.543 514.006C549.353 503.111 552.779 490.443 552.388 477.601C551.997 464.76 547.807 452.323 540.348 441.863C532.889 431.403 522.496 423.389 510.482 418.836C499.405 414.638 487.41 413.555 475.795 415.676C474.165 415.974 472.555 414.974 472.182 413.36L467.78 394.279Z" fill="#00AAFF"/>
<circle cx="488.445" cy="478.593" r="30.5077" transform="rotate(-180 488.445 478.593)" fill="#00AAFF"/>
<rect width="34.5233" height="511.03" transform="matrix(-0.716335 0.697756 0.697756 0.716335 133.146 105.243)" fill="#00AAFF"/>
<rect x="468.829" y="97.8308" width="34.5233" height="511.03" transform="rotate(44.2473 468.829 97.8308)" fill="#00AAFF"/>
<rect x="237.458" y="195.507" width="120.717" height="166.507" rx="7" fill="#00AAFF"/>
</svg>
